<svg width="30" height="30" viewBox="0 0 30 30" fill="none" xmlns="http://www.w3.org/2000/svg">
<g clip-path="url(#clip0)">
<path d="M26.3377 3.58496H3.66853C1.64494 3.58496 0 5.2299 0 7.25349V22.747C0 24.7706 1.64494 26.4155 3.66853 26.4155H26.3315C28.3551 26.4155 30 24.7706 30 22.747V7.2597C30.0062 5.23611 28.3613 3.58496 26.3377 3.58496ZM28.3302 22.747C28.3302 23.8457 27.4364 24.7395 26.3377 24.7395H3.66853C2.56983 24.7395 1.67598 23.8457 1.67598 22.747V7.2597C1.67598 6.161 2.56983 5.26715 3.66853 5.26715H26.3315C27.4302 5.26715 28.324 6.161 28.324 7.2597V22.747H28.3302Z" fill="#E2AB3F"/>
<path d="M18.9201 14.8074L26.2572 8.22765C26.5986 7.91728 26.6296 7.38966 26.3193 7.04205C26.0089 6.70065 25.4813 6.66961 25.1337 6.97998L15.0157 16.0613L13.0418 14.2984C13.0356 14.2922 13.0294 14.286 13.0294 14.2798C12.9859 14.2363 12.9425 14.1991 12.8928 14.1619L4.86054 6.97377C4.51293 6.6634 3.98531 6.69444 3.67494 7.04205C3.36458 7.38966 3.39561 7.91728 3.74322 8.22765L11.1672 14.8633L3.77426 21.7844C3.43906 22.101 3.42044 22.6286 3.73702 22.97C3.90461 23.1439 4.12808 23.237 4.35154 23.237C4.55638 23.237 4.76122 23.1625 4.92261 23.0135L12.4273 15.993L14.4633 17.8118C14.6247 17.9545 14.8233 18.0228 15.0219 18.0228C15.2206 18.0228 15.4254 17.9483 15.5806 17.8056L17.6725 15.9309L25.1337 23.0197C25.2951 23.1749 25.5061 23.2494 25.7109 23.2494C25.9344 23.2494 26.1517 23.1625 26.3193 22.9887C26.6358 22.6535 26.6234 22.1196 26.2882 21.8031L18.9201 14.8074Z" fill="#E2AB3F"/>
</g>
<defs>
<clipPath id="clip0">
<rect width="30" height="30" fill="white"/>
</clipPath>
</defs>
</svg>
